<svg width="58" height="46" viewBox="0 0 58 46" fill="none" xmlns="http://www.w3.org/2000/svg">
<path d="M30.9537 18.0307C34.3192 17.7188 34.4134 14.6217 35.603 12.3442C38.4389 6.92977 45.1045 3.12189 51.1246 2.47999C53.0793 2.27328 57.8809 1.76556 57.4384 4.77198C57.1556 6.69405 51.9623 8.79382 50.5843 10.647C49.072 12.6779 49.4419 15.1077 48.7383 17.1421C48.0747 19.057 45.1408 22.0561 43.2949 22.941C41.8878 23.6155 40.5532 23.6228 39.2984 24.3771C43.9912 28.0109 41.9531 32.0038 38.584 35.6376C37.6846 36.6095 36.3283 37.1644 35.5014 38.3575C33.9565 40.5806 34.5912 43.7429 31.8132 45.1863C29.9455 46.1582 27.6173 45.4075 27.4069 43.1554C27.2111 41.0556 28.8431 39.4672 28.9664 38.1762C29.0353 37.4617 28.038 30.9231 27.3272 31.8152C26.9174 33.2876 26.9319 38.3938 25.2745 38.673C23.6172 38.9522 22.9245 33.7373 22.968 32.5369C21.8583 31.409 19.6969 35.9313 19.5011 36.867C18.8773 39.8698 20.2409 44.7511 16.4511 45.7847C10.9642 47.2788 13.0676 39.3802 12.3821 37.139C12.179 36.4789 10.2896 35.5469 9.60782 34.4735C7.98675 31.9131 8.16082 28.7072 9.90157 26.2811C10.315 25.7044 11.519 25.4361 11.6459 24.3735C11.0621 23.4378 9.97048 23.3037 9.18351 22.5675C8.49447 21.9256 6.36205 18.5565 6.08281 17.6861C5.3031 15.2455 7.78004 12.4494 5.63312 8.34776C4.59592 6.34227 -1.37338 3.81456 0.291204 1.33038C1.73095 -0.812918 11.432 1.72567 13.597 2.92606C19.8601 6.4003 20.3896 11.9598 23.6245 17.1965C24.2736 18.2482 24.4948 18.7959 25.5139 17.8457C28.0307 15.4993 27.28 11.0495 25.3217 8.6125C24.4767 7.5608 22.1303 6.59613 21.735 5.32684C21.017 3.03486 21.6444 1.96502 24.1648 2.50175C27.2691 3.16541 28.009 10.3242 28.785 12.9499C29.3689 12.8955 29.3181 12.3841 29.4777 12.0142C30.4714 9.68958 31.0915 7.00231 32.6219 5.00407C33.5177 3.8327 36.2811 1.20707 37.0536 3.7783C37.826 6.34953 35.6429 6.12468 34.3917 7.49914C34.0472 7.87631 30.9573 12.1085 30.9573 12.4059V18.027L30.9537 18.0307ZM14.2788 10.4113C13.9996 11.6298 12.9261 11.9598 12.6142 13.2907C11.6133 17.5411 17.666 21.853 18.5835 19.2456C19.2327 17.4033 16.3242 11.3542 14.2824 10.4113H14.2788ZM42.8343 10.8319C39.8134 11.1511 37.1261 16.1666 36.6619 18.8503C36.6075 19.1694 36.2521 19.7351 36.9448 19.8439C38.526 20.0869 43.0011 16.1884 43.799 14.7377C44.5315 13.3995 44.9051 10.6144 42.8343 10.8356V10.8319ZM32.6618 26.8142C29.5212 27.5612 30.9972 33.099 34.5911 32.0255C37.8587 31.05 37.2095 25.7298 32.6618 26.8142ZM17.4339 32.0654C17.7458 31.8116 18.5074 30.2848 18.6524 29.8206C19.5627 26.8903 15.4502 25.9982 14.1229 28.214C12.2298 31.3727 15.0404 34.0165 17.4339 32.0654Z" fill="#2C2C2C"/>
</svg>
