<svg width="58" height="60" viewBox="0 0 58 60" fill="none" xmlns="http://www.w3.org/2000/svg">
<path d="M28.3906 0.999023C28.4271 1.00546 28.4352 1.01476 28.4443 1.02637C28.4947 1.09049 28.5536 1.27976 28.5391 1.66797C28.5257 2.02602 28.4566 2.43386 28.3867 2.82617C28.3529 3.01597 28.3188 3.20702 28.2939 3.37207C28.2702 3.5297 28.2488 3.70269 28.2549 3.84961C28.2845 4.57627 28.4331 5.41036 28.5781 6.2041C28.7264 7.01565 28.8712 7.78752 28.916 8.4502V8.45117C28.9702 9.23202 29.015 11.6111 29.125 13.9404C29.1793 15.0904 29.249 16.2188 29.3447 17.0967C29.3924 17.5341 29.4479 17.9225 29.5137 18.2246C29.5463 18.3747 29.5849 18.5163 29.6309 18.6377C29.6677 18.735 29.7333 18.883 29.8525 18.999L29.8516 19.001L29.8594 19.0078L29.8691 19.0176L29.8789 19.0264C29.968 19.106 30.0686 19.145 30.1162 19.1621C30.1769 19.1838 30.2417 19.2003 30.3027 19.2139C30.4259 19.2411 30.5755 19.2639 30.7344 19.2832C31.0546 19.3221 31.4558 19.3518 31.8545 19.373C32.2544 19.3944 32.6602 19.4073 32.9932 19.4111C33.3068 19.4147 33.6021 19.4114 33.75 19.3896H33.751C34.9916 19.2057 35.6658 18.2863 36.1328 17.3828C36.3659 16.9317 36.5708 16.4357 36.7637 16.0029C36.9134 15.6669 37.0584 15.3617 37.2148 15.0977L37.376 14.8477C37.7313 14.3441 38.1677 13.8954 38.6562 13.3828C39.1367 12.8788 39.656 12.3229 40.123 11.6436L40.124 11.6445C40.32 11.3599 40.5936 10.8417 40.8887 10.2705C41.1919 9.68352 41.5319 9.01216 41.876 8.375C42.2216 7.73497 42.5587 7.15297 42.8516 6.74609C42.956 6.60099 43.0464 6.4893 43.1221 6.40918C43.1429 6.45509 43.1593 6.50394 43.167 6.55957C43.1904 6.72972 43.1599 6.95813 43.0713 7.24512C42.9842 7.52717 42.854 7.82647 42.7119 8.12891C42.5768 8.41657 42.4189 8.73008 42.3125 8.9873C41.7287 10.3976 40.7792 11.9507 39.8271 13.5361C38.8893 15.0979 37.946 16.6972 37.4434 18.1357C37.1508 18.9727 37.0375 20.2302 37.2842 21.2402C37.4079 21.7465 37.6369 22.2537 38.0449 22.5947C38.4779 22.9565 39.0429 23.0749 39.6914 22.916L39.6924 22.915C39.8159 22.8843 39.9969 22.8079 40.1777 22.7266C40.3742 22.6381 40.6196 22.5214 40.8955 22.3857C41.4485 22.1138 42.1373 21.7601 42.832 21.3975C44.2171 20.6743 45.6475 19.9015 46.0781 19.6475L46.0771 19.6465C46.4096 19.4514 47.0025 19.0179 47.6807 18.5225C48.3745 18.0156 49.1887 17.4223 49.998 16.8789C50.8115 16.3327 51.599 15.8506 52.2412 15.5596C52.5641 15.4132 52.8253 15.3276 53.0186 15.2969C53.0699 15.2887 53.1106 15.2849 53.1426 15.2842L53.2344 15.5771C51.8595 16.5846 50.5521 17.7019 49.2607 18.8008C48.045 19.8353 46.842 20.8535 45.5879 21.7725L45.0479 22.1602C44.624 22.4565 44.1014 22.7256 43.5244 23.0107C42.9595 23.29 42.3409 23.5851 41.7793 23.918C40.7373 24.5356 39.733 25.3741 39.5693 26.709L39.5479 26.9824C39.5099 28.0601 39.7703 28.8664 40.3105 29.4189C40.8413 29.9617 41.5654 30.1797 42.2832 30.2559C43.0023 30.3322 43.7843 30.2724 44.4951 30.2002C45.2301 30.1255 45.8684 30.0406 46.3887 30.0381H46.3896C46.9482 30.0351 47.5084 30.188 48.1523 30.373C48.773 30.5514 49.4751 30.7609 50.2158 30.7861C50.5956 30.799 51.201 30.7355 51.8555 30.6592C52.5302 30.5805 53.2916 30.4836 54.0352 30.415C54.7812 30.3463 55.4806 30.3092 56.0254 30.3438C56.2984 30.3611 56.5105 30.3946 56.6611 30.4414C56.8215 30.4913 56.8483 30.5355 56.8398 30.5234C56.9456 30.6758 57.0217 31.0535 56.9375 31.416C56.8982 31.5851 56.8334 31.7052 56.7646 31.7764C56.7091 31.8339 56.6408 31.8704 56.5342 31.875C51.3057 31.181 45.7661 31.9553 40.708 32.5273L40.502 32.5508L40.373 32.7129C39.8778 33.3352 39.5555 33.959 39.5918 34.625C39.6285 35.2987 40.0233 35.8736 40.6152 36.417L40.6475 36.4463L40.6855 36.4707L51.1182 43.1006C51.31 43.2814 51.4466 43.4579 51.5293 43.6113C51.6185 43.777 51.628 43.8813 51.6221 43.9268C51.6193 43.948 51.6152 43.9754 51.5479 44.0146C51.461 44.0653 51.2778 44.1242 50.9414 44.125L50.8242 44.1182C50.5326 44.0839 50.1083 43.9273 49.5605 43.6396C48.9551 43.3217 48.2724 42.8842 47.5703 42.4111C46.8889 41.952 46.1455 41.4291 45.5107 41.0059C44.8677 40.5771 44.2527 40.1932 43.7568 39.9775C43.2988 39.7777 42.8664 39.6942 42.4893 39.6289C42.0981 39.5612 41.7918 39.5152 41.4902 39.4062H41.4893C41.0581 39.2501 40.6487 39.0414 40.2051 38.8301C39.7792 38.6272 39.3165 38.419 38.8457 38.3262C38.3581 38.2301 37.8429 38.253 37.3311 38.5234C36.832 38.7872 36.3889 39.2586 35.9775 39.9541C35.7067 40.4116 35.5625 40.8242 35.5664 41.2139C35.5706 41.6222 35.7361 41.9325 35.9365 42.1768C36.1162 42.3957 36.3678 42.6069 36.5361 42.7646C36.725 42.9416 36.8799 43.1088 36.9912 43.3105V43.3115C37.6772 44.5497 38.3606 46.0735 39.0371 47.6416C39.5414 48.8106 40.0429 50.007 40.5342 51.1084L41.0225 52.1738C41.2515 52.6586 41.654 53.0999 41.9443 53.4473C42.2284 53.7872 42.4189 54.0505 42.499 54.293L42.5264 54.3955C42.644 54.9829 42.3999 55.4005 42.1523 55.5479C42.0345 55.6179 41.9065 55.6372 41.7715 55.5967C41.6309 55.5544 41.4349 55.4317 41.2305 55.1309C40.8438 54.5614 40.4272 53.6867 39.9863 52.7334C39.5558 51.8024 39.1047 50.8016 38.6641 50.0527C38.1788 49.2277 37.2338 47.5743 36.2148 46.04C35.7053 45.2729 35.1697 44.5244 34.6572 43.918C34.1599 43.3295 33.6319 42.8105 33.1309 42.5801C32.1747 42.1401 31.3678 42.0444 30.7227 42.3525C30.0796 42.6597 29.7595 43.2916 29.5889 43.9082C29.4161 44.5326 29.3661 45.2515 29.3438 45.8896C29.3203 46.5611 29.3267 47.1104 29.2822 47.5107C29.1899 48.3413 29.0275 49.1885 28.876 50.0811C28.7263 50.9626 28.5891 51.8765 28.5654 52.79C28.5533 53.2755 28.5932 53.864 28.6396 54.4688C28.6869 55.083 28.7422 55.7226 28.7686 56.3457C28.795 56.9693 28.7908 57.5521 28.7256 58.0459C28.659 58.5497 28.5363 58.9003 28.3721 59.1094H28.3711C28.3243 59.169 28.1319 59.2591 27.8418 59.166C27.6056 59.0901 27.5028 58.9568 27.4844 58.833L27.4814 58.7803V58.7705C27.5372 55.9783 27.6393 53.1601 27.4912 50.333C27.4646 49.8327 27.2864 49.4343 27.1387 49.1348C27.0595 48.9742 27.0019 48.8661 26.9521 48.752C26.905 48.6439 26.8866 48.5746 26.8818 48.5264C26.8451 48.1566 26.9 47.622 26.9639 46.9482C27.0247 46.3063 27.0891 45.5671 27.0342 44.8857C26.9797 44.2109 26.8024 43.5018 26.2998 42.9932C25.7785 42.4656 25.0073 42.2507 23.9902 42.3545V42.3555C23.522 42.4035 23.0622 42.626 22.6309 42.9287C22.1948 43.2348 21.7526 43.6474 21.3154 44.124C20.4411 45.0773 19.5443 46.3344 18.7061 47.6436C17.077 50.188 15.6313 52.9927 14.9648 54.3115C14.6753 54.4932 14.3875 54.4552 14.1934 54.3203C13.993 54.181 13.8607 53.9182 13.9736 53.5645C15.5272 51.0588 17.2384 48.3901 18.5986 45.7129L18.8682 45.1738C19.1295 44.6413 19.4164 44.1472 19.7305 43.5303C20.0237 42.9542 20.3043 42.3353 20.4453 41.7324C20.5867 41.1279 20.6016 40.4802 20.2881 39.8945C19.9724 39.3049 19.3769 38.8759 18.5098 38.5967L18.2861 38.5254L18.0879 38.6504C17.7362 38.8739 17.3098 38.9657 16.7959 39.0312C16.3194 39.092 15.7112 39.1318 15.1895 39.3037V39.3047C15.1177 39.3284 15.0382 39.3702 14.9883 39.3975C14.9244 39.4323 14.8463 39.4778 14.7578 39.5303C14.5801 39.6357 14.3478 39.7785 14.0801 39.9463C13.5438 40.2823 12.8548 40.7239 12.1533 41.1777C10.7507 42.0852 9.29046 43.0463 8.88379 43.3174H8.88281C8.51956 43.5602 8.23229 43.8687 7.99316 44.1406C7.73889 44.4298 7.55452 44.6577 7.34863 44.8369C7.1565 45.0041 6.99221 45.0843 6.81543 45.0996C6.67737 45.1115 6.4873 45.0867 6.2207 44.9688L6.30273 44.1729C8.85884 42.3173 12.0264 40.3004 14.3818 38.1523L14.3828 38.1514C14.7736 37.794 15.2292 37.3885 15.6318 36.9707C16.0321 36.5553 16.4156 36.0919 16.6455 35.6045C16.8804 35.1063 16.975 34.5343 16.709 33.9648C16.4534 33.4178 15.9108 32.976 15.1172 32.6113L15.0254 32.5693L14.9229 32.5664L0.733398 32.1631C0.700474 32.1433 0.659052 32.1053 0.617188 32.0283C0.556546 31.9166 0.512484 31.7546 0.5 31.5654C0.487615 31.3777 0.508738 31.1926 0.553711 31.0459C0.577858 30.9671 0.60421 30.9137 0.625977 30.8789L0.670898 30.8232C0.953774 30.6222 1.22575 30.6562 1.67773 30.8643C1.78986 30.9159 1.90286 30.9735 2.02637 31.0361C2.1463 31.0969 2.27712 31.1635 2.40918 31.2227C2.66775 31.3384 2.98238 31.4524 3.32324 31.4512C4.37163 31.4476 6.74946 31.3629 9.07812 31.2197C10.2433 31.1481 11.4016 31.0611 12.3789 30.9619C13.2223 30.8763 13.9607 30.779 14.4521 30.667L14.6475 30.6182C15.291 30.4396 15.7767 30.1852 16.1016 29.8223C16.438 29.4463 16.5525 29.0091 16.5596 28.5742C16.5663 28.1575 16.475 27.716 16.3789 27.3008C16.2785 26.867 16.1695 26.4465 16.1025 25.999L16.0703 25.7832L15.8906 25.6602L4.92578 18.165C4.75717 18.0012 4.70208 17.8787 4.68848 17.8145C4.67699 17.7598 4.69076 17.7403 4.7002 17.7285C4.732 17.689 4.93936 17.5503 5.36914 17.7051C5.97053 17.9216 6.86053 18.4301 7.8291 19.0039C8.77008 19.5613 9.77433 20.1736 10.541 20.5361H10.542C11.03 20.7663 11.5374 20.8857 11.9844 20.9912C12.4478 21.1006 12.8463 21.1952 13.2109 21.3652L13.2119 21.3662C13.7938 21.6377 14.3763 22.0382 14.9766 22.4443C15.5519 22.8336 16.1673 23.245 16.7471 23.4502C17.0443 23.5553 17.3648 23.6187 17.6904 23.5811C18.027 23.5421 18.3367 23.3985 18.6035 23.1426C19.1083 22.6584 19.4347 21.7978 19.6465 20.5449L19.6699 20.4043L19.6162 20.2725C18.9468 18.632 17.5583 16.7979 16.2705 15.0605C14.95 13.279 13.7392 11.6045 13.2715 10.1904H13.2725C13.1801 9.90902 13.1297 9.63897 13.1221 9.3623C13.4153 9.33491 13.6232 9.36884 13.7773 9.42871C13.9878 9.51049 14.1597 9.66275 14.333 9.90625C14.5151 10.1622 14.6664 10.4699 14.8672 10.8525C15.0594 11.2189 15.2875 11.6328 15.6025 12.0166C16.0199 12.5248 16.5053 12.9794 16.9551 13.4033C17.4142 13.836 17.8372 14.2371 18.1816 14.6709C18.3472 14.8795 18.6257 15.3103 18.9893 15.876C19.3443 16.4283 19.7653 17.0863 20.1973 17.7119C20.627 18.3344 21.0802 18.944 21.502 19.3955C21.712 19.6204 21.9302 19.8224 22.1465 19.9678C22.3492 20.1039 22.6264 20.2423 22.9346 20.2109H22.9365C23.0222 20.2019 23.1286 20.168 23.1904 20.1484C23.2742 20.1219 23.378 20.0858 23.4932 20.0449C23.7246 19.9627 24.015 19.8543 24.3047 19.7422C24.5943 19.6301 24.8875 19.513 25.126 19.4131C25.3446 19.3215 25.5654 19.2244 25.6719 19.1582C26.3322 18.7529 26.7691 18.2731 27.0322 17.7217C27.2926 17.1758 27.3646 16.5992 27.3604 16.0322C27.3562 15.473 27.2762 14.8819 27.21 14.3193C27.1421 13.7436 27.0855 13.1777 27.1074 12.6074V12.6064C27.2257 9.5143 27.5109 6.28929 27.8252 3.19141C27.8501 2.94562 27.808 2.65639 27.7744 2.42773C27.7368 2.17146 27.7003 1.93937 27.6934 1.71973C27.6864 1.49918 27.7131 1.35042 27.7607 1.25391C27.7974 1.1799 27.8607 1.10446 28.0293 1.05176L28.0303 1.05078C28.2288 0.988261 28.3398 0.990076 28.3906 0.999023ZM37.458 26.6582C35.9372 22.6644 31.9337 19.7943 26.3896 20.8604H26.3848L26.3369 20.8691C24.3435 21.2593 22.3596 22.3774 20.8096 23.8906C19.2602 25.4032 18.1075 27.3478 17.8359 29.4209C16.6726 38.2938 26.7443 44.5414 33.7578 39.0537C38.0143 35.7245 38.9753 30.6433 37.458 26.6582Z" fill="#2C2C2C" stroke="black"/>
</svg>
