<svg width="58" height="66" viewBox="0 0 58 66" fill="none" xmlns="http://www.w3.org/2000/svg">
<path d="M52.2793 41.7162C44.5471 49.4399 30.4136 49.9422 21.9858 42.9012C19.075 40.4712 17.1816 32.0477 17.641 28.334C17.9974 25.4618 20.8395 23.1263 21.3418 20.8551C21.6166 19.6015 20.9941 17.9572 21.0842 17.8327C21.2173 17.6438 24.9611 17.0169 25.618 16.9525C26.6913 16.8495 27.5456 17.3518 28.7349 17.1414C30.5896 16.8109 33.0797 14.5311 34.9387 14.8875C35.9562 15.085 41.7736 20.4086 42.482 21.5506C43.4781 23.1563 44.1049 28.875 43.5081 30.5966C42.0827 34.7225 33.0368 38.844 30.0959 34.3661C29.5077 33.4731 28.8422 31.1247 28.795 30.0471C28.7478 28.9695 29.1599 25.7237 30.5209 26.8486C30.7356 27.0246 31.5728 31.2148 32.2125 32.1379C33.1183 33.4388 38.1758 32.022 39.1247 30.5107C42.2974 25.4447 37.0639 19.2194 31.6286 20.0051C30.5681 20.1596 26.687 21.5678 25.9485 22.2719C22.7114 25.3459 22.3207 30.5837 22.8016 34.7912C23.2996 39.1531 29.688 42.7509 33.7537 43.1588C41.1167 43.8972 44.7961 41.347 49.6518 36.311C54.2327 31.5626 54.383 15.7976 48.9649 11.6289C47.342 10.3795 45.0966 9.91583 43.3793 9.05717C41.8123 8.27579 40.7561 6.90623 38.7898 6.3481C35.6643 5.46798 29.3231 5.62254 26.1246 6.33523C8.65517 10.2249 0.875724 34.6495 12.5105 48.0832C13.82 49.5944 21.329 55.1371 23.2352 55.8197C26.8716 57.1163 28.8465 57.1334 32.3627 57.4168C33.4189 57.5027 34.6897 58.4944 35.8832 58.5374C41.0051 58.7134 49.9395 53.6988 53.3998 53.9822C59.0198 54.4416 54.5719 60.4736 51.704 61.972C50.6221 62.5387 43.6798 65.3079 42.7396 65.4581C39.6914 65.9347 29.4132 64.8399 26.219 63.9984C16.7308 61.4954 4.14721 50.3758 1.97051 40.5914C1.51972 38.5134 0.592368 33.6406 0.506502 31.7472C0.261784 26.5652 6.98508 13.2388 10.5657 9.2332C17.8256 1.11029 29.6837 -0.645666 39.979 1.72423C44.0705 2.66875 53.1594 8.1427 55.0914 11.9423C59.3375 20.2798 59.2688 34.7353 52.2793 41.7162Z" fill="#2C2C2C"/>
</svg>
