<svg width="58" height="58" viewBox="0 0 58 58" fill="none" xmlns="http://www.w3.org/2000/svg">
<path d="M32.3347 15.7384C32.6637 16.0849 37.4199 18.0168 37.9378 17.8733C38.3263 17.7683 43.366 13.3936 43.793 12.8511C45.0109 11.2937 44.6819 9.79577 45.4729 8.23137C48.1117 3.03068 57.1202 8.32586 53.5399 14.1985C51.9125 16.8688 49.5081 15.7944 47.1983 16.2564C45.1999 16.6554 41.9801 20.3336 41.7701 22.402C41.3536 26.4443 44.5524 27.6027 48.0872 26.9447C49.2981 26.7172 50.2116 25.7688 51.4155 25.3768C57.9251 23.2489 59.647 32.3939 54.3028 34.2138C49.3191 35.9077 49.8301 32.2889 46.7748 31.9214C45.2489 31.7359 42.5611 31.6799 41.8751 33.3353C41.7911 33.5418 40.9757 37.4826 40.9792 37.7066C40.9862 39.005 43.037 41.5563 44.024 42.3718C45.8929 43.9187 47.9612 43.2187 49.5466 45.5986C51.132 47.9784 50.5791 50.0048 48.3217 51.6777C45.7039 53.6166 43.5235 52.8886 41.6931 50.3058C40.3527 48.4124 41.3151 47.0265 40.3107 45.0351C39.6667 43.7612 36.3244 40.1144 34.9035 40.3244C34.7495 40.3454 32.1002 41.3568 31.9777 41.4548C31.2987 42.0113 31.0818 46.463 31.2287 47.471C31.4772 49.1894 32.8036 50.0538 33.1466 51.4992C34.6445 57.8443 25.4996 59.3982 24.4392 53.9071C23.7882 50.5228 26.952 49.7563 27.0255 46.456C27.0815 43.9817 26.8295 42.0043 24.4392 40.9614C21.8108 39.8169 20.0469 40.9544 17.9226 42.6273C14.5663 45.2696 16.4596 48.3459 12.8934 49.8473C6.56225 52.5107 4.03891 43.2887 9.91505 41.2729C12.6904 40.3209 14.3248 41.9028 16.2952 38.55C17.7336 36.1002 18.0626 32.1419 14.5523 31.6029C9.83105 30.8785 9.37608 32.9364 5.93229 33.7938C-0.524815 35.4037 -2.27121 26.3253 3.52794 25.0898C6.38026 24.4809 7.62269 26.3708 10.272 26.8187C12.5574 27.2037 16.3162 26.9272 17.0301 24.2464C17.7441 21.5656 14.9267 17.1978 12.4839 15.8259C10.041 14.454 7.01722 14.5835 6.16328 11.3007C4.73536 5.79901 12.6099 3.02718 14.3003 8.05988C15.0737 10.3592 14.7798 11.5457 16.6976 13.712C17.0686 14.132 20.0364 16.5714 20.3514 16.7078C22.0943 17.4463 24.1942 16.2564 25.9896 16.7113C27.7325 16.3439 27.512 12.5361 27.3125 11.1327C27.0955 9.63128 26.371 9.92526 25.5766 9.03282C21.2789 4.19261 28.8104 -2.57598 32.8876 2.06824C36.3349 5.995 32.5027 7.6259 31.9847 11.2027C31.8377 12.2246 31.6557 15.0385 32.3347 15.7489V15.7384ZM29.0099 22.892C22.0663 23.7004 21.9158 34.8227 29.9548 34.3923C37.7803 33.9723 36.0235 22.0765 29.0099 22.892Z" fill="#2C2C2C"/>
</svg>
